<svg xmlns="http://www.w3.org/2000/svg" version="1.1" viewBox="-5.0 -10.0 110.0 135.0">
 <path d="m85.238 14.84v80.301c0 2.3984-1.9492 4.3516-4.3516 4.3516l-51.785-0.003907c-2.3984 0-4.3516-1.9492-4.3516-4.3516v-2.4375h46.16c4.1484 0 7.5391-3.3906 7.5391-7.5508v-74.66h2.4492c2.3906 0 4.3398 1.9609 4.3398 4.3516zm-56.707-12.738-12.18 12.168h12.18zm42.379 87.41h-51.801c-2.3984 0-4.3516-1.9609-4.3516-4.3516l0.003907-67.488c0-0.070313 0-0.14062 0.011719-0.19922h15.371c0.87891 0 1.6016-0.71875 1.6016-1.6016l-0.007813-15.359c0.070313-0.011719 0.14062-0.011719 0.19922-0.011719h38.98c2.3984 0 4.3516 1.9492 4.3516 4.3516v80.301c-0.019531 2.3984-1.9688 4.3594-4.3594 4.3594zm-18.949-12.852c0-0.87891-0.71875-1.6016-1.6016-1.6016h-26c-0.87891 0-1.6016 0.71875-1.6016 1.6016 0 0.87891 0.71875 1.6016 1.6016 1.6016h25.988c0.89062 0 1.6133-0.72266 1.6133-1.6016zm0-14.602c0-0.87891-0.71875-1.6016-1.6016-1.6016l-26 0.003907c-0.87891 0-1.6016 0.71094-1.6016 1.6016 0 0.87891 0.71875 1.5898 1.6016 1.5898h25.988c0.89062 0.007812 1.6133-0.70312 1.6133-1.5938zm0-14.59c0-0.87891-0.71875-1.6016-1.6016-1.6016l-26 0.003906c-0.87891 0-1.6016 0.71875-1.6016 1.6016 0 0.87891 0.71875 1.6016 1.6016 1.6016h25.988c0.89062-0.003907 1.6133-0.72266 1.6133-1.6055zm5.9883-14.879c0.80078-0.82031 1.3203-1.8711 1.4688-2.9805 0.14844-1.1289-0.070313-2.3203-0.76953-3.3789-0.19922-0.32031-0.44922-0.62109-0.76172-0.92188-1.1016-1.0586-2.5508-1.4102-4.1094-1.7812-1.3203-0.30859-2.7109-0.64062-3.5-1.4492-0.17969-0.19141-0.32031-0.42188-0.41016-0.67969-0.12891-0.35938-0.14844-0.76953-0.058594-1.1719 0.078125-0.37891 0.26953-0.75 0.57031-1.0391 0.21875-0.21875 0.53125-0.41016 0.89844-0.53906 0.12109-0.039063 0.23828-0.078126 0.35938-0.10156 0.32031-0.078125 0.66016-0.12891 0.98828-0.14062h0.03125c0.039062 0 0.078125 0 0.10938-0.011719 0.55078-0.011719 1.1094 0.078125 1.6211 0.26953 0.73047 0.26953 1.3398 0.76953 1.6016 1.5312 0.03125 0.078126 0.039063 0.14844 0.058594 0.21875 0.21094 0.85938 1.0703 1.3789 1.9297 1.1719 0.85938-0.21094 1.3789-1.0703 1.1719-1.9297-0.039063-0.17188-0.089844-0.32812-0.14063-0.48047-0.60937-1.7812-1.9297-2.9219-3.5195-3.5-0.39844-0.14844-0.82031-0.26172-1.2383-0.32812v-2.0117c0-0.87891-0.71094-1.6016-1.5898-1.6016s-1.6016 0.71094-1.6016 1.6016v2.0781c-0.070313 0.019532-0.12891 0.03125-0.19141 0.039063-0.21875 0.050781-0.42969 0.12109-0.62109 0.17969-0.83984 0.28906-1.5508 0.73047-2.1016 1.2695-0.76953 0.75-1.2617 1.6797-1.4688 2.6484-0.21094 0.94922-0.14844 1.9609 0.16016 2.8711 0.23828 0.69922 0.62109 1.3398 1.1406 1.8789 1.4414 1.4688 3.3086 1.9102 5.0586 2.3281 1.1094 0.26172 2.1484 0.5 2.6094 0.94922 0.12109 0.12109 0.21875 0.25 0.30859 0.37891 0.25 0.37891 0.32812 0.80859 0.28125 1.2109-0.050781 0.42969-0.26953 0.83984-0.58984 1.1797-0.10938 0.12109-0.23828 0.21875-0.39062 0.32031-0.17188 0.10938-0.35156 0.19922-0.53125 0.28125-0.80078 0.32812-1.7812 0.42188-2.7305 0.16016-0.94141-0.25-1.8516-0.85938-2.5312-1.8906-0.19141-0.28906-0.37109-0.60938-0.51172-0.96094-0.33984-0.80859-1.2695-1.1992-2.0781-0.85937-0.82031 0.33984-1.1992 1.2695-0.87109 2.0781 0.23047 0.55078 0.48828 1.0508 0.78125 1.4883 1.1211 1.7109 2.6602 2.7305 4.2812 3.1914v2.1719c0 0.87891 0.71094 1.5898 1.6016 1.5898 0.87891 0 1.5898-0.71094 1.5898-1.5898v-1.9688c0.58984-0.089844 1.1602-0.25 1.6797-0.46875 0.37891-0.14844 0.73047-0.35156 1.0586-0.55078 0.36719-0.19922 0.67969-0.46094 0.95703-0.75zm9.2891 44.07c0-0.87891-0.71094-1.6016-1.6016-1.6016h-5.3086c-0.87891 0-1.6016 0.71875-1.6016 1.6016 0 0.87891 0.71094 1.6016 1.6016 1.6016h5.3086c0.89453 0 1.6016-0.72266 1.6016-1.6016zm0-14.602c0-0.87891-0.71094-1.6016-1.6016-1.6016h-5.3086c-0.87891 0-1.6016 0.71094-1.6016 1.6016 0 0.87891 0.71094 1.5898 1.6016 1.5898h5.3086c0.89453 0.011718 1.6016-0.69922 1.6016-1.5898zm0-14.59c0-0.87891-0.71094-1.6016-1.6016-1.6016h-5.3086c-0.87891 0-1.6016 0.71875-1.6016 1.6016 0 0.87891 0.71094 1.6016 1.6016 1.6016h5.3086c0.89453 0 1.6016-0.71875 1.6016-1.6016z"/>
<text x="0.0" y="117.5" font-size="5.0" font-weight="bold" font-family="Arbeit Regular, Helvetica, Arial-Unicode, Arial, Sans-serif" fill="#000000">Created by nangicon</text><text x="0.0" y="122.5" font-size="5.0" font-weight="bold" font-family="Arbeit Regular, Helvetica, Arial-Unicode, Arial, Sans-serif" fill="#000000">from Noun Project</text></svg>