<svg xmlns="http://www.w3.org/2000/svg" version="1.1" viewBox="-5.0 -10.0 110.0 135.0">
 <path d="m28.125 6.25c-6.9062 0-12.5 5.5938-12.5 12.5v43.75h40.625c5.1562 0 9.375 4.2188 9.375 9.375v9.375c0 1.7188-1.4062 3.125-3.125 3.125s-3.125-1.4062-3.125-3.125v-6.25c0-3.4375-2.8125-6.25-6.25-6.25h-37.5c-5.1562 0-9.375 4.2188-9.375 9.375v6.25c0 5.1562 4.2188 9.375 9.375 9.375h50c6.9062 0 12.5-5.5938 12.5-12.5v-64.062c0-6.0312 4.9062-10.938 10.938-10.938zm12.5 40.625c0 1.7188-1.4062 3.125-3.125 3.125s-3.125-1.4062-3.125-3.125v-3.125h-3.125c-1.7188 0-3.125-1.4062-3.125-3.125s1.4062-3.125 3.125-3.125h7.8125c0.875 0 1.5625-0.6875 1.5625-1.5625s-0.6875-1.5625-1.5625-1.5625h-2.7812c-3.8438 0-7.375-2.625-8.0312-6.4375-0.75-4.375 2.1562-8.2188 6.1562-9.0312 0-0.0625-0.03125-0.09375-0.03125-0.15625v-3.125c0-1.7188 1.4062-3.125 3.125-3.125s3.125 1.4062 3.125 3.125v3.125h3.125c1.7188 0 3.125 1.4062 3.125 3.125s-1.4062 3.125-3.125 3.125h-7.8125c-0.875 0-1.5625 0.6875-1.5625 1.5625s0.6875 1.5625 1.5625 1.5625h2.7812c3.8438 0 7.375 2.625 8.0312 6.4375 0.75 4.375-2.1562 8.2188-6.1562 9.0312 0 0.0625 0.03125 0.09375 0.03125 0.15625zm21.875 9.375h-15.625c-1.7188 0-3.125-1.4062-3.125-3.125s1.4062-3.125 3.125-3.125h15.625c1.7188 0 3.125 1.4062 3.125 3.125s-1.4062 3.125-3.125 3.125zm0-12.5h-9.375c-1.7188 0-3.125-1.4062-3.125-3.125s1.4062-3.125 3.125-3.125h9.375c1.7188 0 3.125 1.4062 3.125 3.125s-1.4062 3.125-3.125 3.125zm0-12.5h-9.375c-1.7188 0-3.125-1.4062-3.125-3.125s1.4062-3.125 3.125-3.125h9.375c1.7188 0 3.125 1.4062 3.125 3.125s-1.4062 3.125-3.125 3.125zm0-12.5h-9.375c-1.7188 0-3.125-1.4062-3.125-3.125s1.4062-3.125 3.125-3.125h9.375c1.7188 0 3.125 1.4062 3.125 3.125s-1.4062 3.125-3.125 3.125zm31.25-1.5625v29.688h-9.375v-29.688c0-2.5938 2.0938-4.6875 4.6875-4.6875s4.6875 2.0938 4.6875 4.6875z"/>
<text x="0.0" y="117.5" font-size="5.0" font-weight="bold" font-family="Arbeit Regular, Helvetica, Arial-Unicode, Arial, Sans-serif" fill="#000000">Created by Corner Pixel</text><text x="0.0" y="122.5" font-size="5.0" font-weight="bold" font-family="Arbeit Regular, Helvetica, Arial-Unicode, Arial, Sans-serif" fill="#000000">from Noun Project</text></svg>