<svg xmlns="http://www.w3.org/2000/svg" version="1.1" viewBox="-5.0 -10.0 110.0 135.0">
 <path d="m35.184 94.016v2.1289c0 1.2656-1.0234 2.293-2.2891 2.293h-24.863c-1.2656 0-2.293-1.0273-2.293-2.293v-2.1289c0.003907-1.2617 1.0312-2.2852 2.293-2.2852h24.863c1.2617 0 2.2852 1.0234 2.2891 2.2852zm-2.293-11.742h-24.859c-1.2656 0-2.2891 1.0195-2.293 2.2852v2.1328c0 1.2656 1.0273 2.2891 2.293 2.2891h24.863c1.2656 0 2.293-1.0234 2.293-2.2891v-2.1328c-0.003906-1.2656-1.0273-2.2852-2.293-2.2852zm-18.191-7.168v2.1328c0 1.2656 1.0234 2.2891 2.2891 2.2891h24.867c1.2617-0.003906 2.2812-1.0273 2.2812-2.2891v-2.1328c0.003906-0.60938-0.23828-1.1914-0.66797-1.6211-0.42578-0.42969-1.0078-0.67188-1.6172-0.67188h-24.863c-1.2656 0-2.2891 1.0273-2.2891 2.293zm33.23 0.089843-0.003907-27.84h-11.477v22.707h5.4023c2.7812 0.003906 5.0352 2.2578 5.0352 5.043v0.089843zm34.055-56.066h14.133l-17.57-17.566v14.133c0.007813 1.8945 1.543 3.4297 3.4375 3.4336zm-63.422 45.418v5.5195h4.625v-8.1914zm12.727-7.3477-5.3516 3.0898v9.7734l7.7617 0.003906v-16.203c-0.019531 0.09375-0.042969 0.18359-0.066407 0.27734-0.34375 1.293-1.1875 2.3945-2.3438 3.0586zm-8.1016-48.172h-0.50781c-2.2695 0.003906-4.1094 1.8398-4.1172 4.1094v37.316l4.625-2.668zm13.168 81.328c0.94141 0.88672 1.5078 2.1016 1.5742 3.3945h46.625c2.2695-0.003906 4.1094-1.8438 4.1133-4.1172v-0.50781h-51.359c-0.25391 0.45703-0.57422 0.87109-0.95312 1.2305zm49.262-43h-34.938v7.1562h34.934zm-34.93 17.5h9.8008v-7.5938h-9.8086zm12.559 10.34h9.8086v-7.5898h-9.8125zm32.875-53.309v61.055c-0.003906 1.8945-1.5391 3.4297-3.4336 3.4297h-54.75v-1.8125c0-0.79688-0.19141-1.5781-0.55078-2.2852h4.4648c2.5078-0.003907 4.6328-1.8516 4.9844-4.332h40.152c0.36328 0 0.71484-0.14844 0.97266-0.40625 0.25781-0.25781 0.40234-0.60938 0.40234-0.97266v-30.586c0-0.36328-0.14453-0.71484-0.40234-0.97266-0.25781-0.25781-0.60938-0.40234-0.97266-0.40234h-51.914c-0.36328 0-0.71484 0.14453-0.97266 0.40234-0.25781 0.25781-0.40234 0.60938-0.40234 0.97266v5.8125c-0.10938-0.51562-0.30078-1.0117-0.56641-1.4688l-1.0664-1.8438c-0.66406-1.1602-1.7617-2.0039-3.0508-2.3438-0.43359-0.11719-0.875-0.17578-1.3203-0.17578-0.60156 0-1.1953 0.10938-1.7578 0.32031v-41.285c0.007812-1.8906 1.543-3.4258 3.4375-3.4297h46.422v14.133c0.003906 3.4141 2.7734 6.1836 6.1875 6.1875zm-42.293 0.11328v-0.003906c0 0.36719 0.14844 0.71484 0.40625 0.97266s0.60938 0.40234 0.97266 0.40234h10.812c0.76172 0 1.3789-0.61719 1.3789-1.3789 0-0.75781-0.61719-1.375-1.3789-1.375h-10.812c-0.36328 0-0.71484 0.14453-0.97656 0.40234-0.25781 0.25781-0.40234 0.60938-0.40234 0.97266zm-7.0039 0v-0.003906c0.003906 0.76172 0.61719 1.3789 1.3789 1.3789h1.5039c0.75781 0 1.375-0.61719 1.375-1.3789 0-0.75781-0.61719-1.375-1.375-1.375h-1.5039c-0.75781 0-1.375 0.61328-1.3789 1.3711zm0 6.707v-0.003906c0 0.76172 0.61719 1.3789 1.3789 1.3789h25.199c0.75781 0 1.375-0.61719 1.375-1.3789 0-0.75781-0.61719-1.375-1.375-1.375h-25.199c-0.75781 0-1.375 0.61328-1.3789 1.3711zm-11.961-1.4141c0.042969 1.8867 1.3281 3.5234 3.1523 4.0156v1.0898c0 0.76172 0.61328 1.3789 1.375 1.3789s1.375-0.61719 1.375-1.3789v-1.0859c1.8281-0.49219 3.1094-2.1289 3.1523-4.0195v-1.4766c0-2.9883-2.2461-4.168-3.8867-5.0273-1.7188-0.90234-2.418-1.3867-2.418-2.5898v-1.4844c0.16406-0.85156 0.91016-1.4648 1.7773-1.4648s1.6133 0.61328 1.7773 1.4648v1.4805c-0.011719 0.37109 0.12891 0.73047 0.39062 0.99609 0.25781 0.26562 0.61328 0.41797 0.98438 0.41797 0.37109 0 0.72656-0.15234 0.98828-0.41797 0.25781-0.26562 0.39844-0.625 0.38672-0.99609v-1.4805c-0.046875-1.8906-1.3281-3.5234-3.1523-4.0195v-1.0898c0-0.76172-0.61328-1.375-1.375-1.375s-1.375 0.61328-1.375 1.375v1.0898c-1.8242 0.49609-3.1094 2.1289-3.1523 4.0195v1.4805c0 2.9883 2.2461 4.168 3.8906 5.0273 1.7148 0.90234 2.418 1.3867 2.418 2.5898l-0.003906 1.4805c-0.16406 0.84766-0.91016 1.4648-1.7773 1.4648s-1.6133-0.61719-1.7773-1.4648v-1.4766c0-0.76172-0.61719-1.3789-1.375-1.3789-0.76172 0-1.375 0.61719-1.375 1.3789zm53.5 9.6875c0-0.36719-0.14453-0.71484-0.40234-0.97656-0.25781-0.25781-0.60938-0.40234-0.97266-0.40234h-51.914c-0.76172 0-1.375 0.61719-1.375 1.3789 0 0.75781 0.61328 1.375 1.375 1.375h51.914c0.36328 0 0.71484-0.14453 0.97266-0.40234 0.25781-0.25781 0.40234-0.60938 0.40234-0.97266zm-37.684 38.207h9.8086v-7.582h-9.8086zm22.371-17.926h-9.8086v7.5859h9.8086zm12.559 0h-9.8086v7.5859h9.8086zm-9.8086 17.926h9.8086l0.003906-7.582h-9.8125zm-67.422-7.9336 21.535-12.434c1.0898-0.63672 1.4648-2.0312 0.83984-3.125l-1.0664-1.8477c-0.63281-1.0898-2.0312-1.4648-3.125-0.83203l-21.535 12.43c-1.0938 0.63281-1.4688 2.0312-0.83984 3.125l1.0703 1.8477c0.63281 1.0898 2.0273 1.4609 3.1211 0.83594z" fill-rule="evenodd"/>
<text x="0.0" y="117.5" font-size="5.0" font-weight="bold" font-family="Arbeit Regular, Helvetica, Arial-Unicode, Arial, Sans-serif" fill="#000000">Created by Sunardi</text><text x="0.0" y="122.5" font-size="5.0" font-weight="bold" font-family="Arbeit Regular, Helvetica, Arial-Unicode, Arial, Sans-serif" fill="#000000">from Noun Project</text></svg>