<svg xmlns="http://www.w3.org/2000/svg" version="1.1" viewBox="-5.0 -10.0 110.0 135.0">
 <path d="m63.844 24.031h6.25c1.7188 0 3.125-1.4062 3.125-3.125s-1.4062-3.125-3.125-3.125h-6.25c-1.7188 0-3.125 1.4062-3.125 3.125s1.4062 3.125 3.125 3.125z"/>
 <path d="m45.469 24.031h7.5c1.7188 0 3.125-1.4062 3.125-3.125s-1.4062-3.125-3.125-3.125h-7.5c-1.7188 0-3.125 1.4062-3.125 3.125s1.4062 3.125 3.125 3.125z"/>
 <path d="m29.906 24.031h4.6875c1.7188 0 3.125-1.4062 3.125-3.125s-1.4062-3.125-3.125-3.125h-4.6875c-1.7188 0-3.125 1.4062-3.125 3.125s1.4062 3.125 3.125 3.125z"/>
 <path d="m45.469 38.094h7.5c1.7188 0 3.125-1.4062 3.125-3.125s-1.4062-3.125-3.125-3.125h-7.5c-1.7188 0-3.125 1.4062-3.125 3.125s1.4062 3.125 3.125 3.125z"/>
 <path d="m29.906 38.094h4.6875c1.7188 0 3.125-1.4062 3.125-3.125s-1.4062-3.125-3.125-3.125h-4.6875c-1.7188 0-3.125 1.4062-3.125 3.125s1.4062 3.125 3.125 3.125z"/>
 <path d="m37.391 45.906h-7.5c-1.7188 0-3.125 1.4062-3.125 3.125s1.4062 3.125 3.125 3.125h7.5c1.7188 0 3.125-1.4062 3.125-3.125s-1.4062-3.125-3.125-3.125z"/>
 <path d="m52.969 45.906h-4.6875c-1.7188 0-3.125 1.4062-3.125 3.125s1.4062 3.125 3.125 3.125h4.6875c1.7188 0 3.125-1.4062 3.125-3.125s-1.4062-3.125-3.125-3.125z"/>
 <path d="m73.219 38.891h-4.0469v-2.625h-2.5781v2.7188l5.6875 3.1719c0.65625 0.59375 0.9375 1.2656 0.9375 2.0781v4.6406c0 1.1719-0.51562 1.7344-0.9375 2s-1.0312 0.39062-1.8594 0.39062h-0.625v1.7656h-3.8594v-1.7656h-0.625c-0.82812 0-1.4375-0.125-1.8594-0.39062-0.60938-0.375-0.92188-1.0469-0.92188-2v-3.7031h4.0469v2.6094h2.5781v-3.0938l-5.7969-3.2812c-0.54688-0.51562-0.82812-1.2031-0.82812-2.0156v-4.2656c0-0.9375 0.3125-1.6094 0.90625-2 0.42188-0.26562 1.0312-0.39062 1.8594-0.39062h0.625v-1.7656h3.8594v1.7656h0.64062c0.82812 0 1.4219 0.125 1.8594 0.39062 0.42188 0.25 0.92188 0.8125 0.92188 1.9688v3.7969z"/>
 <path d="m79.453 1.5625h-58.906c-4.0781 0-7.3906 3.3125-7.3906 7.375v66.297h1.7188l8.0625-8.0625 6.7656 6.7656 6.7656-6.7656 6.7656 6.7656 6.7656-6.7656 6.7656 6.7656 6.7656-6.75 6.7188 6.7656 6.7812-6.7812 8.0625 8.0625h1.75v-66.297c0-4.0625-3.3125-7.375-7.3906-7.375zm-9.1875 63.531-6.7344-6.7656-6.7656 6.7656-6.7656-6.7656-6.7656 6.7656-6.7656-6.7656-6.7656 6.7656-8.3906-8.3906v-47h57.375v46.969z"/>
 <path d="m77.031 76.016-6.7812 6.7812-6.7188-6.7656-6.7656 6.75-6.7656-6.7656-6.7656 6.7656-6.7656-6.7656-6.7656 6.7656-6.7656-6.7656-5.4688 5.4688h-4.3125v9.5781c0 4.0625 3.3125 7.375 7.3906 7.375h58.906c4.0781 0 7.3906-3.3125 7.3906-7.375v-9.5781h-4.3438z"/>
<text x="0.0" y="117.5" font-size="5.0" font-weight="bold" font-family="Arbeit Regular, Helvetica, Arial-Unicode, Arial, Sans-serif" fill="#000000">Created by Tithy</text><text x="0.0" y="122.5" font-size="5.0" font-weight="bold" font-family="Arbeit Regular, Helvetica, Arial-Unicode, Arial, Sans-serif" fill="#000000">from Noun Project</text></svg>